<svg width="160" height="160" viewBox="3 0 160 160" fill="none" xmlns="http://www.w3.org/2000/svg">
<path d="M83.0002 99.2204C82.9502 99.2204 82.9002 99.2104 82.8502 99.2104C82.8102 99.2104 82.7702 99.2204 82.7302 99.2204C67.9702 99.2204 54.9802 90.2904 47.4702 76.8204V108.41H118.25V76.8204C110.75 90.2904 97.7502 99.2204 82.9902 99.2204H83.0002Z" fill="#0084FF"/>
<path d="M40.6802 76.8104C33.9102 88.9604 22.6702 97.4004 9.7002 98.9404C10.5602 102.19 11.6302 105.35 12.8902 108.41H40.6802V76.8104Z" fill="#0084FF"/>
<path d="M125.04 76.8204V108.41H152.83C154.09 105.35 155.16 102.19 156.02 98.9504C143.05 97.4104 131.81 88.9804 125.04 76.8204Z" fill="#0084FF"/>
<path d="M40.6802 50.1104C40.6802 48.2404 42.2002 46.7204 44.0702 46.7204C45.9402 46.7204 47.4602 48.2404 47.4602 50.1104C47.4602 73.4404 63.2802 92.4304 82.7202 92.4304C82.7702 92.4304 82.8202 92.4404 82.8702 92.4404C82.9102 92.4404 82.9502 92.4304 82.9902 92.4304C102.43 92.4304 118.25 73.4504 118.25 50.1104C118.25 48.2404 119.77 46.7204 121.64 46.7204C123.51 46.7204 125.03 48.2404 125.03 50.1104C125.03 72.2904 139.32 90.5304 157.44 92.2804C158.14 88.1504 158.52 83.9204 158.52 79.6004C158.53 37.8104 124.65 3.94043 82.8602 3.94043C41.0702 3.94043 7.2002 37.8104 7.2002 79.6004C7.2002 83.9204 7.5802 88.1504 8.2802 92.2804C26.3902 90.5304 40.6902 72.2904 40.6902 50.1104H40.6802Z" fill="#0084FF"/>
<path d="M125.04 115.19V142.42C135.31 135.51 143.78 126.16 149.64 115.19H125.04Z" fill="#0084FF"/>
<path d="M118.26 115.19H47.4702V146.48C58.0302 152.08 70.0702 155.27 82.8602 155.27C95.6502 155.27 107.69 152.08 118.25 146.48V115.19H118.26Z" fill="#0084FF"/>
<path d="M40.6802 115.19H16.0802C21.9402 126.16 30.4102 135.52 40.6802 142.42V115.19Z" fill="#0084FF"/>
<path d="M66.4402 44.1304C76.6302 47.0204 78.7702 49.1704 81.6702 59.3604C81.8202 59.9004 82.3102 60.2704 82.8702 60.2704C83.4302 60.2704 83.9202 59.9004 84.0702 59.3604C86.9602 49.1704 89.1102 47.0304 99.3002 44.1304C99.8402 43.9804 100.21 43.4904 100.21 42.9304C100.21 42.3704 99.8402 41.8804 99.3002 41.7304C89.1102 38.8404 86.9702 36.6904 84.0702 26.5004C83.9202 25.9604 83.4302 25.5904 82.8702 25.5904C82.3102 25.5904 81.8202 25.9604 81.6702 26.5004C78.7802 36.6904 76.6302 38.8304 66.4402 41.7304C65.9002 41.8804 65.5302 42.3704 65.5302 42.9304C65.5302 43.4904 65.9002 43.9804 66.4402 44.1304Z" fill="#FFDB00"/>
<path d="M125.05 108.4V76.8104C131.82 88.9604 143.06 97.3904 156.03 98.9404C156.6 96.7604 157.08 94.5404 157.46 92.2804C139.35 90.5304 125.05 72.2904 125.05 50.1104C125.05 48.2404 123.53 46.7204 121.66 46.7204C119.79 46.7204 118.27 48.2404 118.27 50.1104C118.27 73.4404 102.45 92.4304 83.0102 92.4304C82.9702 92.4304 82.9302 92.4404 82.8902 92.4404C82.8402 92.4404 82.7902 92.4304 82.7402 92.4304C63.3002 92.4304 47.4802 73.4504 47.4802 50.1104C47.4802 48.2404 45.9602 46.7204 44.0902 46.7204C42.2202 46.7204 40.7002 48.2404 40.7002 50.1104C40.7002 72.2904 26.4102 90.5304 8.2902 92.2804C8.6702 94.5304 9.1402 96.7604 9.7202 98.9404C22.6902 97.4004 33.9302 88.9704 40.7002 76.8104V108.4H12.8902C13.8502 110.72 14.9102 112.99 16.0902 115.19H40.6902V142.42C42.8702 143.89 45.1402 145.24 47.4802 146.47V115.18H118.26V146.47C120.6 145.23 122.86 143.88 125.05 142.42V115.19H149.65C150.82 112.99 151.89 110.73 152.85 108.4H125.05ZM118.26 108.4H47.4702V76.8104C54.9702 90.2804 67.9702 99.2104 82.7302 99.2104C82.7702 99.2104 82.8102 99.2004 82.8502 99.2004C82.9002 99.2004 82.9502 99.2104 83.0002 99.2104C97.7602 99.2104 110.75 90.2804 118.26 76.8104V108.4Z" fill="#141430"/>
</svg>
